#!OML:ASF H:\Terrain\Patient Classification 1\Takeo\Monday\TakeoMonday.ASF
:FULLY-SPECIFIED
:DEGREES
259
root 5.24752 17.4096 2.23747 -106.571 86.7053 -102.111
lowerback 5.82071 -0.644529 -0.615002
upperback 2.68291 -0.839385 -2.19222
thorax -0.526472 -0.381375 -1.8556
lowerneck -3.52333 -13.5856 -10.3186
upperneck 0.129869 -17.9354 9.47095
head 2.36524 -8.83512 3.60746
rclavicle 6.36111e-015 -9.54166e-015
rhumerus 16.4222 -16.3082 -39.5963
rradius 25.9281
rwrist -3.95497
rhand -45.1665 39.3439
rfingers 7.12502
rthumb -17.9438 10.1516
lclavicle 6.36111e-015 -9.54166e-015
lhumerus -14.1123 -11.4984 68.1011
lradius 94.2883
lwrist 22.5771
lhand -26.0107 19.4138
lfingers 7.12502
lthumb 0.535444 49.3929
rfemur -8.98172 2.17932 20.1281
rtibia 31.5697
rfoot -15.9505 -8.92119
rtoes -1.09126
lfemur 1.3575 3.81031 -6.36641
ltibia 26.3083
lfoot -14.4114 18.2114
ltoes -20.8258
260
root 5.26964 17.4218 2.2681 -103.531 86.7494 -99.312
lowerback 5.7518 -0.752867 -0.446668
upperback 2.58451 -0.979877 -2.21003
thorax -0.596478 -0.452495 -1.95983
lowerneck -3.62088 -13.4417 -9.74942
upperneck 0.123995 -17.726 8.74951
head 2.24097 -8.73952 3.34402
rclavicle 2.38542e-015 -1.59028e-014
rhumerus 15.6766 -19.0793 -38.5411
rradius 25.5717
rwrist -2.85503
rhand -44.5621 41.2121
rfingers 7.12502
rthumb -17.3622 11.9675
lclavicle 2.38542e-015 -1.59028e-014
lhumerus -15.031 -10.9261 67.3546
lradius 94.2511
lwrist 22.1057
lhand -25.7719 19.0691
lfingers 7.12502
lthumb 0.766012 49.0475
rfemur -9.17363 2.32573 20.2536
rtibia 31.54
rfoot -15.9887 -8.98159
rtoes 0.670247
lfemur 1.49817 3.50301 -6.19438
ltibia 26.0192
lfoot -16.2035 17.0336
ltoes -14.2143
261
root 5.2953 17.4236 2.30357 -99.9625 86.765 -96.0643
lowerback 5.56042 -0.867673 -0.204991
upperback 2.49898 -1.12361 -2.26272
thorax -0.588157 -0.524566 -2.1428
lowerneck -4.33309 -13.6376 -10.1128
upperneck 0.867262 -17.9567 8.88273
head 2.64041 -8.83115 3.32829
rclavicle 2.98177e-015 2.38542e-014
rhumerus 14.9752 -21.8587 -37.539
rradius 25.2537
rwrist -1.55291
rhand -43.9738 41.8082
rfingers 7.12502
rthumb -16.7959 12.5147
lclavicle 2.98177e-015 2.38542e-014
lhumerus -15.9528 -10.4851 66.617
lradius 94.2791
lwrist 22.1677
lhand -26.5054 19.3114
lfingers 7.12502
lthumb 0.0576289 49.2911
rfemur -9.40808 2.63679 20.3975
rtibia 31.4719
rfoot -16.2227 -8.87679
rtoes 2.61861
lfemur 1.47251 3.41263 -6.03149
ltibia 25.7465
lfoot -16.9392 16.564
ltoes -11.2781
262
root 5.32256 17.4295 2.34045 -98.5837 86.9839 -94.9446
lowerback 5.48055 -1.08876 -0.246388
upperback 2.40558 -1.42368 -2.37873
thorax -0.652364 -0.675693 -2.22119
lowerneck -4.45652 -13.5333 -10.1183
upperneck 0.845974 -17.8029 8.88939
head 2.64095 -8.75124 3.33653
rclavicle -1.70955e-014 -1.11319e-014
rhumerus 14.183 -23.7395 -36.4659
rradius 25.2585
rwrist -0.526661
rhand -44.0183 40.1622
rfingers 7.12502
rthumb -16.8388 10.8723
lclavicle -1.70955e-014 -1.11319e-014
lhumerus -16.9472 -9.85393 65.6372
lradius 94.3962
lwrist 22.3051
lhand -26.7477 19.9909
lfingers 7.12502
lthumb -0.176425 49.9706
rfemur -9.57696 2.77859 20.3107
rtibia 31.4208
rfoot -16.3038 -8.89856
rtoes 1.80455
lfemur 1.43904 3.40733 -6.19143
ltibia 25.3759
lfoot -16.406 16.989
ltoes -12.8373
263
root 5.34471 17.4427 2.37216 -97.8778 86.7443 -94.3039
lowerback 5.66551 -1.30516 0.135189
upperback 2.34374 -1.69904 -2.28953
thorax -0.837484 -0.814571 -2.32207
lowerneck -4.26 -13.3065 -9.93953
upperneck 0.415351 -17.486 8.62323
head 2.41191 -8.60463 3.29692
rclavicle 1.83876e-015 1.27222e-014
rhumerus 12.8416 -24.3998 -34.4955
rradius 25.7227
rwrist -0.886965
rhand -44.5546 38.7413
rfingers 7.12502
rthumb -17.355 9.4961
lclavicle 1.83876e-015 1.27222e-014
lhumerus -17.86 -9.04 64.8446
lradius 94.2935
lwrist 21.9994
lhand -25.9453 20.447
lfingers 7.12502
lthumb 0.598584 50.426
rfemur -9.53584 2.71221 20.7411
rtibia 31.3451
rfoot -16.138 -9.14424
rtoes -2.00895
lfemur 1.39091 3.81785 -5.82869
ltibia 25.0445
lfoot -14.026 18.0767
ltoes -21.0572
264
root 5.36354 17.428 2.4045 -97.2415 86.3782 -93.6232
lowerback 5.90178 -1.50895 0.540471
upperback 2.35323 -1.95075 -2.06282
thorax -0.975286 -0.941607 -2.29398
lowerneck -4.24054 -13.2122 -9.86568
upperneck 0.336505 -17.3389 8.16464
head 2.32263 -8.54032 3.17587
rclavicle 1.47598e-014 2.70347e-014
rhumerus 11.6768 -25.0335 -32.1841
rradius 25.894
rwrist -1.6435
rhand -44.321 38.7464
rfingers 7.12502
rthumb -17.1302 9.48151
lclavicle 1.47598e-014 2.70347e-014
lhumerus -18.8162 -8.17128 64.1588
lradius 94.1728
lwrist 21.8424
lhand -25.4969 19.8246
lfingers 7.12502
lthumb 1.03168 49.8018
rfemur -9.38866 2.68456 21.2947
rtibia 31.2572
rfoot -16.1821 -9.32253
rtoes -4.14057
lfemur 1.79488 2.79958 -5.21442
ltibia 24.8351
lfoot -16.9704 16.3792
ltoes -7.62825
265
root 5.38665 17.4334 2.4421 -98.2388 86.4644 -94.6343
lowerback 6.13774 -1.82317 0.40464
upperback 2.26755 -2.38021 -1.99142
thorax -1.20509 -1.15946 -2.10548
lowerneck -5.27366 -13.2591 -10.0964
upperneck 1.2901 -17.3203 7.80023
head 2.75502 -8.51355 2.99735
rclavicle -2.99171e-014 -1.59028e-015
rhumerus 10.8351 -25.7771 -30.4085
rradius 25.9585
rwrist -1.92879
rhand -44.0927 38.8318
rfingers 7.12502
rthumb -16.9104 9.54806
lclavicle -2.99171e-014 -1.59028e-015
lhumerus -20.1884 -7.19354 63.2571
lradius 94.2315
lwrist 21.6489
lhand -25.7212 18.7318
lfingers 7.12502
lthumb 0.815054 48.71
rfemur -9.23492 2.75892 21.3446
rtibia 31.1206
rfoot -16.5766 -9.52736
rtoes -3.74333
lfemur 1.98125 2.41948 -5.23977
ltibia 24.7689
lfoot -17.622 16.2315
ltoes -5.11063
266
root 5.40947 17.445 2.47868 -100.366 86.5696 -96.9223
lowerback 6.19181 -2.09356 0.479235
upperback 2.1732 -2.74097 -2.11139
thorax -1.35602 -1.34125 -2.24018
lowerneck -4.8685 -12.8297 -10.0414
upperneck 0.661291 -16.7636 8.00831
head 2.47047 -8.24222 3.14717
rclavicle 1.15295e-014 -3.02153e-014
rhumerus 9.46076 -26.5613 -28.7136
rradius 26.3433
rwrist -2.24753
rhand -44.1744 38.1273
rfingers 7.12502
rthumb -16.989 8.85026
lclavicle 1.15295e-014 -3.02153e-014
lhumerus -21.4105 -6.36269 62.3145
lradius 94.2701
lwrist 21.467
lhand -25.5985 18.4925
lfingers 7.12502
lthumb 0.933526 48.4702
rfemur -9.25822 2.81049 21.358
rtibia 31.0355
rfoot -16.7371 -9.74956
rtoes -2.88469
lfemur 1.89414 2.51308 -5.27522
ltibia 24.6938
lfoot -17.0237 16.5487
ltoes -7.34337
267
root 5.43286 17.4553 2.5155 -102.852 86.7667 -99.5784
lowerback 6.04186 -2.25702 0.499333
upperback 2.27016 -2.95435 -2.23651
thorax -1.18972 -1.44492 -2.37227
lowerneck -4.79565 -12.8147 -9.89224
upperneck 0.142946 -16.7271 7.61619
head 2.50919 -8.24345 3.38176
rclavicle 1.78906e-015 1.74931e-014
rhumerus 8.03104 -27.9842 -26.8804
rradius 26.5742
rwrist -2.26023
rhand -43.1552 37.5989
rfingers 7.12502
rthumb -16.0079 8.24031
lclavicle 1.78906e-015 1.74931e-014
lhumerus -22.1909 -5.63585 61.5255
lradius 94.1904
lwrist 21.374
lhand -25.8599 18.9887
lfingers 7.12502
lthumb 0.681103 48.9674
rfemur -9.29433 2.84889 21.2528
rtibia 30.9711
rfoot -16.6887 -9.68961
rtoes -1.03806
lfemur 1.72421 2.67628 -5.42041
ltibia 24.6273
lfoot -15.9855 16.9525
ltoes -10.8613
268
root 5.45701 17.464 2.55182 -103.119 86.8514 -99.8617
lowerback 6.07417 -2.45003 0.51037
upperback 2.36358 -3.2073 -2.22088
thorax -1.12282 -1.56955 -2.34478
lowerneck -4.83773 -12.7852 -9.90009
upperneck -0.0848316 -16.6675 7.55167
head 2.42715 -8.21188 3.3711
rclavicle -4.47266e-015 1.11319e-014
rhumerus 7.0017 -29.3631 -25.1397
rradius 26.6133
rwrist -2.14549
rhand -42.5845 37.7387
rfingers 7.12502
rthumb -15.4582 8.33675
lclavicle -4.47266e-015 1.11319e-014
lhumerus -23.1682 -4.82541 60.7009
lradius 94.1077
lwrist 21.1359
lhand -27.1599 19.173
lfingers 7.12502
lthumb -0.574531 49.152
rfemur -9.20896 2.90529 21.3221
rtibia 30.9918
rfoot -16.7487 -9.62515
rtoes 0.237257
lfemur 1.72503 3.38622 -5.38578
ltibia 24.4276
lfoot -13.2617 17.9534
ltoes -20.3264
269
root 5.4782 17.4588 2.58482 -104.455 86.9552 -101.181
lowerback 6.24513 -2.68007 0.632896
upperback 2.34424 -3.50859 -2.33161
thorax -1.2655 -1.72011 -2.49638
lowerneck -5.13385 -12.6736 -9.95684
upperneck 0.211247 -16.4957 7.45505
head 2.56126 -8.1235 3.33457
rclavicle 2.24627e-014 1.11319e-014
rhumerus 5.75591 -30.0776 -23.369
rradius 26.7428
rwrist -2.85356
rhand -43.7921 36.8854
rfingers 7.12502
rthumb -16.621 7.57707
lclavicle 2.24627e-014 1.11319e-014
lhumerus -24.2485 -4.08072 59.643
lradius 93.9393
lwrist 21.0131
lhand -27.955 18.7923
lfingers 7.12502
lthumb -1.34244 48.7678
rfemur -9.20427 2.91996 21.3398
rtibia 31.1934
rfoot -16.9593 -9.67177
rtoes 0.9067
lfemur 2.23685 2.91484 -5.27627
ltibia 23.8722
lfoot -14.6664 16.7996
ltoes -10.8294
270
root 5.50033 17.458 2.61548 -109.778 87.3461 -106.519
lowerback 6.37351 -2.90943 0.476859
upperback 2.33838 -3.82437 -2.57363
thorax -1.36461 -1.87666 -2.6272
lowerneck -5.59368 -12.6081 -9.64915
upperneck 0.705708 -16.3838 6.96573
head 2.71861 -8.06864 3.08779
rclavicle 4.00551e-014 3.97569e-014
rhumerus 4.15922 -30.2874 -21.4821
rradius 27.1201
rwrist -4.384
rhand -44.7612 35.5164
rfingers 7.12502
rthumb -17.5539 6.28889
lclavicle 4.00551e-014 3.97569e-014
lhumerus -25.2316 -3.31183 58.6404
lradius 93.7812
lwrist 21.061
lhand -26.8521 18.7848
lfingers 7.12502
lthumb -0.277223 48.7644
rfemur -9.24544 2.91161 20.9479
rtibia 31.4493
rfoot -17.3266 -9.62069
rtoes 1.60201
lfemur 2.70069 2.21347 -5.71522
ltibia 23.1494
lfoot -15.4549 16.3295
ltoes -5.26231
271
root 5.52483 17.4596 2.64793 -116.55 87.9781 -113.484
lowerback 6.26183 -3.08519 -0.184737
upperback 2.30269 -4.09652 -2.66925
thorax -1.3139 -2.01245 -2.33998
lowerneck -5.62044 -12.5226 -9.63815
upperneck 0.726422 -16.2531 6.68216
head 2.68707 -8.00882 3.00213
rclavicle 1.4561e-014 2.06736e-014
rhumerus 2.59713 -29.9548 -19.3519
rradius 27.6759
rwrist -6.05566
rhand -45.2072 36.001
rfingers 7.12502
rthumb -17.983 6.8124
lclavicle 1.4561e-014 2.06736e-014
lhumerus -26.2949 -2.26343 58.0172
lradius 93.6499
lwrist 21.0368
lhand -24.7425 18.5658
lfingers 7.12502
lthumb 1.7603 48.5382
rfemur -9.47812 2.97815 20.2789
rtibia 31.7004
rfoot -17.71 -9.66428
rtoes 0.704772
lfemur 2.91064 1.3165 -6.49524
ltibia 22.4195
lfoot -16.0274 16.3248
ltoes -2.11927
272
root 5.54875 17.4709 2.68087 -126.683 88.4663 -123.839
lowerback 6.1604 -3.29762 -0.725565
upperback 2.22089 -4.41169 -2.7235
thorax -1.31806 -2.17064 -2.07397
lowerneck -5.57714 -12.3882 -9.71986
upperneck 0.677693 -16.0586 6.48089
head 2.63249 -7.91698 2.97058
rclavicle 3.27995e-014 1.51076e-014
rhumerus 1.32708 -30.4961 -17.6118
rradius 28.024
rwrist -6.29723
rhand -46.2679 37.5796
rfingers 7.12502
rthumb -19.0034 8.48792
lclavicle 3.27995e-014 1.51076e-014
lhumerus -27.5353 -1.13009 57.3613
lradius 93.4744
lwrist 20.8851
lhand -24.9596 18.3763
lfingers 7.12502
lthumb 1.55058 48.3504
rfemur -9.70136 3.09285 19.7429
rtibia 31.8797
rfoot -17.9501 -9.84401
rtoes -0.024222
lfemur 3.0173 1.02163 -7.07083
ltibia 21.7796
lfoot -15.8565 16.5199
ltoes -1.03138
273
root 5.57011 17.4743 2.70917 -126.628 88.4004 -123.757
lowerback 6.33187 -3.47769 -0.326524
upperback 2.17163 -4.6357 -2.87492
thorax -1.5154 -2.28254 -2.4214
lowerneck -5.48965 -12.2523 -9.10464
upperneck 0.678775 -15.9035 5.96387
head 2.48882 -7.84911 2.72121
rclavicle -2.36554e-014 -1.03368e-014
rhumerus -0.28307 -32.1621 -16.2211
rradius 28.2898
rwrist -5.42673
rhand -47.1386 39.6982
rfingers 7.12502
rthumb -19.8405 10.6909
lclavicle -2.36554e-014 -1.03368e-014
lhumerus -28.7201 -0.448724 56.3242
lradius 93.4082
lwrist 21.0617
lhand -26.3987 18.7577
lfingers 7.12502
lthumb 0.160656 48.7374
rfemur -9.60118 3.23989 19.9316
rtibia 31.9236
rfoot -18.0534 -9.91546
rtoes 0.55424
lfemur 3.29653 1.42503 -6.82305
ltibia 21.3531
lfoot -15.2889 16.4006
ltoes -2.06118
